<svg width="26" height="26" viewBox="0 0 24 24" fill="none" xmlns="http://www.w3.org/2000/svg">
<g clip-path="url(#clip0_2_2)">
<path d="M11.9866 22.7875C17.9518 22.7875 22.7875 17.9518 22.7875 11.9866C22.7875 6.02137 17.9518 1.18562 11.9866 1.18562C6.02141 1.18562 1.18567 6.02137 1.18567 11.9866C1.18567 17.9518 6.02141 22.7875 11.9866 22.7875Z" fill="white"/>
<path d="M11.9866 22.7875C17.9518 22.7875 22.7875 17.9518 22.7875 11.9866C22.7875 6.02137 17.9518 1.18562 11.9866 1.18562C6.02141 1.18562 1.18567 6.02137 1.18567 11.9866C1.18567 17.9518 6.02141 22.7875 11.9866 22.7875Z" fill="white"/>
<path d="M11.9866 23.8412C5.44991 23.8412 0.131897 18.5232 0.131897 11.9866C0.131897 5.44988 5.44991 0.131866 11.9866 0.131866C18.5233 0.131866 23.8413 5.44988 23.8413 11.9866C23.8413 18.5232 18.5233 23.8412 11.9866 23.8412ZM11.9866 2.23937C6.61193 2.23937 2.2394 6.6119 2.2394 11.9866C2.2394 17.3612 6.61193 21.7337 11.9866 21.7337C17.3612 21.7337 21.7338 17.3612 21.7338 11.9866C21.7338 6.6119 17.3612 2.23937 11.9866 2.23937Z" fill="white"/>
<path d="M11.9866 22.7875C6.02133 22.7875 1.18567 17.9518 1.18567 11.9866C1.18567 6.02128 6.02133 1.18562 11.9866 1.18562V22.7875Z" fill="black"/>
</g>
<defs>
<clipPath id="clip0_2_2">
<rect width="24" height="24" fill="white"/>
</clipPath>
</defs>
</svg>
